<svg id="Layer_1" enable-background="new 0 0 510 510" height="512" viewBox="0 0 510 510" width="512" xmlns="http://www.w3.org/2000/svg"><g><path id="XMLID_926_" d="m8.342 407.913c8.257 8.064 15.352 14.991 23.608 23.055h223.05l10-209.5-10-209.5c-5.246 4.829-9.754 8.979-15.001 13.809-6.536 10.782-225.127 371.364-231.657 382.136z" fill="#edf5ff"/><g fill="#b5dbff"><path id="XMLID_3386_" d="m255 239c-5.246 0-9.754 0-15 0 0-11 0-20 0-30h15l10 15z"/><path id="XMLID_3381_" d="m255 299c-5.246 0-9.754 0-15 0 0-11 0-20 0-30h15l10 15z"/><path id="XMLID_3375_" d="m255 374c-5.246 0-9.754 0-15 0 0-15 0-30 0-45h15l10 22.5z"/><path id="XMLID_3021_" d="m240 25.776v153.224h15l10-88.984-10-88.976c-5.246 8.654-9.754 16.082-15 24.736z"/><path id="XMLID_925_" d="m503.108 410.303-233.106-384.524-15.002-13.811v419h223.05z"/></g><path id="XMLID_3384_" d="m255 209h15v30h-15z" fill="#72bbff"/><path id="XMLID_3295_" d="m255 269h15v30h-15z" fill="#72bbff"/><path id="XMLID_2992_" d="m255 329h15v45h-15z" fill="#72bbff"/><path id="XMLID_2987_" d="m270 25.776-15-24.744v177.968h15z" fill="#72bbff"/><path id="XMLID_922_" d="m31.95 390.898v86.14c57.27 24.827 160.878 31.93 223.05 31.93l10-75-10-75c-38.533 0-75.412 2.204-108.512 6.302-80.689 9.989-108.846 23.748-114.538 25.628z" fill="#ffe278"/><path id="XMLID_2855_" d="m255 449c-5.246 0-9.754 0-15 0 0-11 0-20 0-30h15l10 15z" fill="#ffb454"/><circle id="XMLID_3278_" cx="45" cy="433.968" fill="#ffb454" r="45"/><path id="XMLID_920_" d="m478.05 390.897c-45.22-19.604-134.26-31.93-223.05-31.93v150c88.79 0 177.83-12.329 223.05-31.933 0-10.512 0-71.383 0-86.137z" fill="#ffb454"/><path id="XMLID_3292_" d="m255 419h15v30h-15z" fill="#ff884d"/><circle id="XMLID_2984_" cx="465" cy="433.968" fill="#ff884d" r="45"/><path d="m436 89.422v-15.422h-30v105h30v-32.754c0-5.018 9.502-42.246 45-42.246v-30c-18.794 0-33.641 6.314-45 15.422z" fill="#ff884d"/><path d="m75 179c-24.813 0-45-20.186-45-45s20.187-45 45-45 45 20.187 45 45-20.187 45-45 45zm0-60c-8.271 0-15 6.729-15 15s6.729 15 15 15 15-6.729 15-15-6.729-15-15-15z" fill="#c6ea4b"/></g></svg>